<svg xmlns="http://www.w3.org/2000/svg" xmlns:xlink="http://www.w3.org/1999/xlink" width="1920" zoomAndPan="magnify" viewBox="0 0 1440 809.999993" height="1080" preserveAspectRatio="xMidYMid meet" version="1.0"><defs><clipPath id="5c003de9ed"><path d="M 675.410156 360.410156 L 764.589844 360.410156 L 764.589844 449.589844 L 675.410156 449.589844 Z M 675.410156 360.410156 " clip-rule="nonzero"/></clipPath><clipPath id="c81b8ac9aa"><path d="M 720 360.410156 C 695.375 360.410156 675.410156 380.375 675.410156 405 C 675.410156 429.625 695.375 449.589844 720 449.589844 C 744.625 449.589844 764.589844 429.625 764.589844 405 C 764.589844 380.375 744.625 360.410156 720 360.410156 Z M 720 360.410156 " clip-rule="nonzero"/></clipPath><clipPath id="b39852bb01"><path d="M 700.394531 382.539062 L 741.355469 382.539062 L 741.355469 422.769531 L 700.394531 422.769531 Z M 700.394531 382.539062 " clip-rule="nonzero"/></clipPath><clipPath id="c11280a07a"><path d="M 737.128906 392.578125 L 727.9375 383.386719 C 727.246094 382.691406 726.203125 382.484375 725.296875 382.859375 C 724.390625 383.234375 723.800781 384.121094 723.800781 385.101562 C 723.800781 388.332031 721.179688 390.949219 717.949219 390.949219 L 712.097656 390.949219 C 705.632812 390.949219 700.394531 396.191406 700.394531 402.652344 C 700.394531 409.117188 705.632812 414.355469 712.097656 414.355469 L 717.949219 414.355469 C 721.179688 414.355469 723.800781 416.976562 723.800781 420.207031 C 723.800781 421.1875 724.390625 422.070312 725.296875 422.445312 C 726.203125 422.824219 727.246094 422.613281 727.9375 421.921875 L 737.128906 412.730469 C 739.800781 410.058594 741.304688 406.433594 741.304688 402.652344 C 741.304688 398.875 739.800781 395.25 737.128906 392.578125 Z M 737.128906 392.578125 " clip-rule="nonzero"/></clipPath><clipPath id="e852b33a8d"><path d="M 700.394531 387.230469 L 741.355469 387.230469 L 741.355469 427.460938 L 700.394531 427.460938 Z M 700.394531 387.230469 " clip-rule="nonzero"/></clipPath><clipPath id="49f78afedf"><path d="M 737.128906 397.269531 L 727.9375 388.078125 C 727.246094 387.386719 726.203125 387.175781 725.296875 387.554688 C 724.390625 387.929688 723.800781 388.8125 723.800781 389.792969 C 723.800781 393.023438 721.179688 395.644531 717.949219 395.644531 L 712.097656 395.644531 C 705.632812 395.644531 700.394531 400.882812 700.394531 407.347656 C 700.394531 413.808594 705.632812 419.050781 712.097656 419.050781 L 717.949219 419.050781 C 721.179688 419.050781 723.800781 421.667969 723.800781 424.898438 C 723.800781 425.878906 724.390625 426.765625 725.296875 427.140625 C 726.203125 427.515625 727.246094 427.308594 727.9375 426.613281 L 737.128906 417.421875 C 739.800781 414.75 741.304688 411.125 741.304688 407.347656 C 741.304688 403.566406 739.800781 399.941406 737.128906 397.269531 Z M 737.128906 397.269531 " clip-rule="nonzero"/></clipPath></defs><g clip-path="url(#5c003de9ed)"><g clip-path="url(#c81b8ac9aa)"><path fill="#4eb85f" d="M 675.410156 360.410156 L 764.589844 360.410156 L 764.589844 449.589844 L 675.410156 449.589844 Z M 675.410156 360.410156 " fill-opacity="1" fill-rule="nonzero"/></g></g><g clip-path="url(#b39852bb01)"><g clip-path="url(#c11280a07a)"><path fill="#017c4a" d="M 700.394531 379.25 L 747.207031 379.25 L 747.207031 426.058594 L 700.394531 426.058594 Z M 700.394531 379.25 " fill-opacity="1" fill-rule="nonzero"/></g></g><g clip-path="url(#e852b33a8d)"><g clip-path="url(#49f78afedf)"><path fill="#ccffa2" d="M 700.394531 383.941406 L 747.207031 383.941406 L 747.207031 430.75 L 700.394531 430.75 Z M 700.394531 383.941406 " fill-opacity="1" fill-rule="nonzero"/></g></g></svg>