<svg xmlns="http://www.w3.org/2000/svg" xmlns:xlink="http://www.w3.org/1999/xlink" width="142" zoomAndPan="magnify" viewBox="0 0 106.5 106.499998" height="142" preserveAspectRatio="xMidYMid meet" version="1.0"><defs><clipPath id="3b0cc2da93"><path d="M 0 0 L 105.878906 0 L 105.878906 105.878906 L 0 105.878906 Z M 0 0 " clip-rule="nonzero"/></clipPath><clipPath id="8f1fc97914"><path d="M 52.933594 105.878906 C 82.171875 105.878906 105.878906 82.171875 105.878906 52.933594 C 105.878906 23.691406 82.171875 -0.0117188 52.933594 -0.0117188 C 23.691406 -0.0117188 -0.0117188 23.691406 -0.0117188 52.933594 C -0.0117188 82.171875 23.691406 105.878906 52.933594 105.878906 Z M 52.933594 105.878906 " clip-rule="nonzero"/></clipPath><clipPath id="4b62ad7aa6"><path d="M 26.496094 26.125 L 76.214844 26.125 L 76.214844 73.890625 L 26.496094 73.890625 Z M 26.496094 26.125 " clip-rule="nonzero"/></clipPath><clipPath id="5894073795"><path d="M 30.660156 60.035156 L 43.511719 72.886719 C 44.335938 73.710938 45.570312 73.957031 46.648438 73.511719 C 47.722656 73.066406 48.425781 72.015625 48.425781 70.851562 C 48.425781 67.015625 51.535156 63.902344 55.371094 63.902344 L 62.320312 63.902344 C 69.996094 63.902344 76.214844 57.683594 76.214844 50.007812 C 76.214844 42.332031 69.996094 36.113281 62.320312 36.113281 L 55.371094 36.113281 C 51.535156 36.113281 48.425781 33 48.425781 29.164062 C 48.425781 28 47.722656 26.949219 46.648438 26.503906 C 45.570312 26.058594 44.335938 26.304688 43.511719 27.128906 L 30.660156 39.980469 C 28.003906 42.636719 26.507812 46.246094 26.507812 50.007812 C 26.507812 53.769531 28.003906 57.378906 30.660156 60.035156 Z M 30.660156 60.035156 " clip-rule="nonzero"/></clipPath><clipPath id="76a3c1f3a5"><path d="M 26.496094 32 L 76.214844 32 L 76.214844 79.75 L 26.496094 79.75 Z M 26.496094 32 " clip-rule="nonzero"/></clipPath><clipPath id="c3909221e8"><path d="M 30.660156 65.894531 L 43.511719 78.746094 C 44.335938 79.566406 45.570312 79.8125 46.648438 79.367188 C 47.722656 78.921875 48.425781 77.875 48.425781 76.710938 C 48.425781 72.871094 51.535156 69.761719 55.371094 69.761719 L 62.320312 69.761719 C 69.996094 69.761719 76.214844 63.539062 76.214844 55.867188 C 76.214844 48.191406 69.996094 41.96875 62.320312 41.96875 L 55.371094 41.96875 C 51.535156 41.96875 48.425781 38.859375 48.425781 35.023438 C 48.425781 33.859375 47.722656 32.808594 46.648438 32.363281 C 45.570312 31.917969 44.335938 32.164062 43.511719 32.988281 L 30.660156 45.835938 C 28.003906 48.496094 26.507812 52.105469 26.507812 55.867188 C 26.507812 59.628906 28.003906 63.234375 30.660156 65.894531 Z M 30.660156 65.894531 " clip-rule="nonzero"/></clipPath></defs><g clip-path="url(#3b0cc2da93)"><g clip-path="url(#8f1fc97914)"><path fill="#eb6d57" d="M 105.878906 105.878906 L -0.0117188 105.878906 L -0.0117188 -0.0117188 L 105.878906 -0.0117188 Z M 105.878906 105.878906 " fill-opacity="1" fill-rule="nonzero"/></g></g><g clip-path="url(#4b62ad7aa6)"><g clip-path="url(#5894073795)"><path fill="#c44b36" d="M 76.214844 77.800781 L 20.632812 77.800781 L 20.632812 22.214844 L 76.214844 22.214844 Z M 76.214844 77.800781 " fill-opacity="1" fill-rule="nonzero"/></g></g><g clip-path="url(#76a3c1f3a5)"><g clip-path="url(#c3909221e8)"><path fill="#ffe0cf" d="M 76.214844 83.65625 L 20.632812 83.65625 L 20.632812 28.074219 L 76.214844 28.074219 Z M 76.214844 83.65625 " fill-opacity="1" fill-rule="nonzero"/></g></g></svg>