<svg xmlns="http://www.w3.org/2000/svg" xmlns:xlink="http://www.w3.org/1999/xlink" width="1920" zoomAndPan="magnify" viewBox="0 0 1440 809.999993" height="1080" preserveAspectRatio="xMidYMid meet" version="1.0"><defs><clipPath id="63a7b55cb5"><path d="M 666.792969 351.792969 L 773.179688 351.792969 L 773.179688 458.179688 L 666.792969 458.179688 Z M 666.792969 351.792969 " clip-rule="nonzero"/></clipPath><clipPath id="3b10dc97c2"><path d="M 719.988281 458.179688 C 749.367188 458.179688 773.179688 434.367188 773.179688 404.988281 C 773.179688 375.609375 749.367188 351.792969 719.988281 351.792969 C 690.609375 351.792969 666.792969 375.609375 666.792969 404.988281 C 666.792969 434.367188 690.609375 458.179688 719.988281 458.179688 Z M 719.988281 458.179688 " clip-rule="nonzero"/></clipPath><clipPath id="09dfd2812c"><path d="M 693.425781 378.054688 L 743.378906 378.054688 L 743.378906 426 L 693.425781 426 Z M 693.425781 378.054688 " clip-rule="nonzero"/></clipPath><clipPath id="84db03ee37"><path d="M 697.613281 412.125 L 710.523438 425.035156 C 711.347656 425.863281 712.59375 426.109375 713.671875 425.660156 C 714.753906 425.214844 715.457031 424.160156 715.457031 422.992188 C 715.457031 419.136719 718.582031 416.011719 722.4375 416.011719 L 729.417969 416.011719 C 737.128906 416.011719 743.378906 409.757812 743.378906 402.050781 C 743.378906 394.339844 737.128906 388.089844 729.417969 388.089844 L 722.4375 388.089844 C 718.582031 388.089844 715.457031 384.964844 715.457031 381.109375 C 715.457031 379.9375 714.753906 378.882812 713.671875 378.4375 C 712.59375 377.988281 711.347656 378.234375 710.523438 379.0625 L 697.613281 391.972656 C 694.941406 394.644531 693.4375 398.269531 693.4375 402.050781 C 693.4375 405.828125 694.941406 409.453125 697.613281 412.125 Z M 697.613281 412.125 " clip-rule="nonzero"/></clipPath><clipPath id="1c8a070014"><path d="M 693.425781 384 L 743.378906 384 L 743.378906 431.929688 L 693.425781 431.929688 Z M 693.425781 384 " clip-rule="nonzero"/></clipPath><clipPath id="5a1f1151ee"><path d="M 697.613281 418.011719 L 710.523438 430.921875 C 711.347656 431.75 712.59375 431.996094 713.671875 431.546875 C 714.753906 431.101562 715.457031 430.046875 715.457031 428.875 C 715.457031 425.023438 718.582031 421.894531 722.4375 421.894531 L 729.417969 421.894531 C 737.128906 421.894531 743.378906 415.644531 743.378906 407.933594 C 743.378906 400.226562 737.128906 393.972656 729.417969 393.972656 L 722.4375 393.972656 C 718.582031 393.972656 715.457031 390.847656 715.457031 386.992188 C 715.457031 385.824219 714.753906 384.769531 713.671875 384.324219 C 712.59375 383.875 711.347656 384.121094 710.523438 384.949219 L 697.613281 397.859375 C 694.941406 400.53125 693.4375 404.15625 693.4375 407.933594 C 693.4375 411.714844 694.941406 415.339844 697.613281 418.011719 Z M 697.613281 418.011719 " clip-rule="nonzero"/></clipPath></defs><g clip-path="url(#63a7b55cb5)"><g clip-path="url(#3b10dc97c2)"><path fill="#eb6d57" d="M 773.179688 458.179688 L 666.792969 458.179688 L 666.792969 351.792969 L 773.179688 351.792969 Z M 773.179688 458.179688 " fill-opacity="1" fill-rule="nonzero"/></g></g><g clip-path="url(#09dfd2812c)"><g clip-path="url(#84db03ee37)"><path fill="#c44b36" d="M 743.378906 429.972656 L 687.535156 429.972656 L 687.535156 374.128906 L 743.378906 374.128906 Z M 743.378906 429.972656 " fill-opacity="1" fill-rule="nonzero"/></g></g><g clip-path="url(#1c8a070014)"><g clip-path="url(#5a1f1151ee)"><path fill="#ffe0cf" d="M 743.378906 435.855469 L 687.535156 435.855469 L 687.535156 380.011719 L 743.378906 380.011719 Z M 743.378906 435.855469 " fill-opacity="1" fill-rule="nonzero"/></g></g></svg>