<svg xmlns="http://www.w3.org/2000/svg" xmlns:xlink="http://www.w3.org/1999/xlink" width="119" zoomAndPan="magnify" viewBox="0 0 89.25 89.249999" height="119" preserveAspectRatio="xMidYMid meet" version="1.0"><defs><clipPath id="24eb036063"><path d="M 0 0 L 88.433594 0 L 88.433594 88.433594 L 0 88.433594 Z M 0 0 " clip-rule="nonzero"/></clipPath><clipPath id="4f0cca1742"><path d="M 44.21875 0 C 19.796875 0 0 19.796875 0 44.21875 C 0 68.636719 19.796875 88.433594 44.21875 88.433594 C 68.636719 88.433594 88.433594 68.636719 88.433594 44.21875 C 88.433594 19.796875 68.636719 0 44.21875 0 Z M 44.21875 0 " clip-rule="nonzero"/></clipPath><clipPath id="bc38607565"><path d="M 24.777344 22 L 65.394531 22 L 65.394531 61.835938 L 24.777344 61.835938 Z M 24.777344 22 " clip-rule="nonzero"/></clipPath><clipPath id="679c71b242"><path d="M 61.203125 31.898438 L 52.089844 22.785156 C 51.402344 22.097656 50.367188 21.890625 49.46875 22.261719 C 48.570312 22.632812 47.988281 23.511719 47.988281 24.484375 C 47.988281 27.6875 45.390625 30.285156 42.183594 30.285156 L 36.382812 30.285156 C 29.972656 30.285156 24.777344 35.480469 24.777344 41.890625 C 24.777344 48.300781 29.972656 53.496094 36.382812 53.496094 L 42.183594 53.496094 C 45.390625 53.496094 47.988281 56.09375 47.988281 59.300781 C 47.988281 60.269531 48.570312 61.148438 49.46875 61.519531 C 50.367188 61.890625 51.402344 61.6875 52.089844 61 L 61.203125 51.882812 C 63.855469 49.234375 65.34375 45.640625 65.34375 41.890625 C 65.34375 38.144531 63.855469 34.550781 61.203125 31.898438 Z M 61.203125 31.898438 " clip-rule="nonzero"/></clipPath><clipPath id="5825d4678e"><path d="M 24.777344 26.597656 L 65.394531 26.597656 L 65.394531 66.492188 L 24.777344 66.492188 Z M 24.777344 26.597656 " clip-rule="nonzero"/></clipPath><clipPath id="b0d5653c13"><path d="M 61.203125 36.550781 L 52.089844 27.4375 C 51.402344 26.75 50.367188 26.542969 49.46875 26.914062 C 48.570312 27.289062 47.988281 28.164062 47.988281 29.136719 C 47.988281 32.339844 45.390625 34.9375 42.183594 34.9375 L 36.382812 34.9375 C 29.972656 34.9375 24.777344 40.136719 24.777344 46.542969 C 24.777344 52.953125 29.972656 58.148438 36.382812 58.148438 L 42.183594 58.148438 C 45.390625 58.148438 47.988281 60.746094 47.988281 63.953125 C 47.988281 64.925781 48.570312 65.800781 49.46875 66.171875 C 50.367188 66.542969 51.402344 66.339844 52.089844 65.652344 L 61.203125 56.535156 C 63.855469 53.886719 65.34375 50.292969 65.34375 46.542969 C 65.34375 42.796875 63.855469 39.203125 61.203125 36.550781 Z M 61.203125 36.550781 " clip-rule="nonzero"/></clipPath></defs><g clip-path="url(#24eb036063)"><g clip-path="url(#4f0cca1742)"><path fill="#4eb85f" d="M 0 0 L 88.433594 0 L 88.433594 88.433594 L 0 88.433594 Z M 0 0 " fill-opacity="1" fill-rule="nonzero"/></g></g><g clip-path="url(#bc38607565)"><g clip-path="url(#679c71b242)"><path fill="#017c4a" d="M 24.777344 18.679688 L 71.195312 18.679688 L 71.195312 65.101562 L 24.777344 65.101562 Z M 24.777344 18.679688 " fill-opacity="1" fill-rule="nonzero"/></g></g><g clip-path="url(#5825d4678e)"><g clip-path="url(#b0d5653c13)"><path fill="#ccffa2" d="M 24.777344 23.332031 L 71.195312 23.332031 L 71.195312 69.753906 L 24.777344 69.753906 Z M 24.777344 23.332031 " fill-opacity="1" fill-rule="nonzero"/></g></g></svg>